HIERARCHY
ROOT Hips
{
	OFFSET 0.000000 0.000000 0.000000 
	CHANNELS 6 Xposition Yposition Zposition Zrotation Yrotation Xrotation
	JOINT LeftUpLeg
	{
		OFFSET 1.363060 -1.794630 0.839290 
		CHANNELS 3 Zrotation Yrotation Xrotation
		JOINT LeftLeg
		{
			OFFSET 2.448110 -6.726130 0.000000 
			CHANNELS 3 Zrotation Yrotation Xrotation
			JOINT LeftFoot
			{
				OFFSET 2.562200 -7.039590 0.000000 
				CHANNELS 3 Zrotation Yrotation Xrotation
				JOINT LeftToeBase
				{
					OFFSET 0.157640 -0.433110 2.322550 
					CHANNELS 3 Zrotation Yrotation Xrotation
					End Site
					{
						OFFSET 0.000000 0.000000 0.000000 
					}
				}
			}
		}
	}
	JOINT RightUpLeg
	{
		OFFSET -1.305520 -1.794630 0.839290 
		CHANNELS 3 Zrotation Yrotation Xrotation
		JOINT RightLeg
		{
			OFFSET -2.542530 -6.985550 0.000000 
			CHANNELS 3 Zrotation Yrotation Xrotation
			JOINT RightFoot
			{
				OFFSET -2.568260 -7.056230 0.000000 
				CHANNELS 3 Zrotation Yrotation Xrotation
				JOINT RightToeBase
				{
					OFFSET -0.164730 -0.452590 2.363150 
					CHANNELS 3 Zrotation Yrotation Xrotation
					End Site
					{
						OFFSET 0.000000 0.000000 0.000000 
					}
				}
			}
		}
	}
	JOINT Spine
	{
		OFFSET 0.028270 2.035590 -0.193380 
		CHANNELS 3 Zrotation Yrotation Xrotation
		JOINT Spine1
		{
			OFFSET 0.056720 2.048850 -0.042750 
			CHANNELS 3 Zrotation Yrotation Xrotation
			JOINT Neck1
			{
				OFFSET -0.054170 1.746240 0.172020 
				CHANNELS 3 Zrotation Yrotation Xrotation
				JOINT Head
				{
					OFFSET 0.104070 1.761360 -0.123970 
					CHANNELS 3 Zrotation Yrotation Xrotation
					End Site
					{
						OFFSET 0.000000 0.000000 0.000000 
					}
				}
			}
			JOINT LeftArm
			{
				OFFSET 3.362410 1.200890 -0.311210 
				CHANNELS 3 Zrotation Yrotation Xrotation
				JOINT LeftForeArm
				{
					OFFSET 4.983000 -0.000000 -0.000000 
					CHANNELS 3 Zrotation Yrotation Xrotation
					JOINT LeftHand
					{
						OFFSET 3.483560 -0.000000 -0.000000 
						CHANNELS 3 Zrotation Yrotation Xrotation
						JOINT LeftHandIndex1
						{
							OFFSET 0.715260 -0.000000 -0.000000 
							CHANNELS 3 Zrotation Yrotation Xrotation
							End Site
							{
								OFFSET 0.000000 0.000000 0.000000 
							}
						}
					}
				}
			}
			JOINT RightArm
			{
				OFFSET -3.136600 1.374050 -0.404650 
				CHANNELS 3 Zrotation Yrotation Xrotation
				JOINT RightForeArm
				{
					OFFSET -5.241900 -0.000000 -0.000000 
					CHANNELS 3 Zrotation Yrotation Xrotation
					JOINT RightHand
					{
						OFFSET -3.444170 -0.000000 -0.000000 
						CHANNELS 3 Zrotation Yrotation Xrotation
						JOINT RightHandIndex1
						{
							OFFSET -0.622530 -0.000000 -0.000000 
							CHANNELS 3 Zrotation Yrotation Xrotation
							End Site
							{
								OFFSET 0.000000 0.000000 0.000000 
							}
						}
					}
				}
			}
		}
	}
}
MOTION
Frames: 12
Frame Time: 0.041667
-1.740568 17.591865 29.819132 176.004990 -38.075933 -162.365844 -34.232954 -14.055481 8.361902 -2.626965 0.006571 7.500933 1.092279 12.744744 -24.816490 0.239400 3.149000 8.693900 15.197258 47.732427 -29.854811 0.695955 -9.139680 22.321409 -7.947658 -18.001140 -58.967483 -8.497800 -16.473400 54.336500 1.249733 -0.154446 -3.400551 1.215308 0.167390 -3.704356 12.167278 -13.162872 19.611429 4.146200 -6.370900 9.627100 -90.265719 4.594559 12.047516 23.526129 -26.323970 -5.879525 -0.589462 0.918461 29.298077 -7.125000 0.000000 0.000000 91.841012 -7.788621 30.052747 -21.967624 21.926118 -4.262177 -2.447401 0.195842 -10.255985 7.125000 0.000000 0.000000 
-1.792788 17.589344 29.729088 176.617978 -37.611656 -162.421352 -33.973304 -13.881422 7.248615 -2.399379 0.849008 9.581477 1.116953 12.624655 -24.921282 0.262200 3.294400 9.099400 16.832006 45.517263 -30.487450 0.760291 -9.359574 22.638737 -6.146402 -19.964881 -54.026106 -8.041700 -16.149800 52.712800 1.547780 -0.220604 -3.516323 1.569568 0.149388 -3.705669 12.079859 -12.839822 19.925050 4.229000 -6.257500 9.802500 -91.093966 4.490754 11.074935 23.550775 -26.399491 -5.893821 -0.589680 0.896260 30.011188 -7.125000 0.000000 0.000000 91.065671 -7.936630 30.839250 -21.831301 21.703464 -4.231775 -2.481645 0.162305 -10.327297 7.125000 0.000000 0.000000 
-1.830612 17.600271 29.595441 177.037005 -38.066733 -163.124737 -33.489186 -14.051151 7.571721 -2.196263 1.392898 11.115837 1.212426 12.128374 -25.135766 0.169400 2.651500 7.310100 19.039433 44.182110 -29.155786 0.769225 -9.356648 22.804848 -5.356369 -20.910939 -51.634195 -7.735200 -15.921000 51.603200 1.838782 -0.477210 -3.489840 2.101484 0.061144 -3.804693 12.079238 -12.820561 19.936101 4.277300 -6.284200 9.768800 -91.679067 4.501122 10.639820 23.484184 -26.358510 -5.865534 -0.569364 0.896185 30.325598 -7.125000 0.000000 0.000000 90.595859 -8.009484 31.439787 -21.503111 21.283793 -4.114691 -2.498274 0.113426 -10.638515 7.125000 0.000000 0.000000 
-1.866861 17.602582 29.460638 177.717404 -38.210928 -163.890670 -32.672977 -14.013017 7.643065 -1.948974 1.847661 12.390176 1.561060 9.831570 -25.511534 0.713400 5.397900 15.047000 21.001417 43.549037 -28.122584 0.782897 -9.370597 23.022181 -4.143302 -23.479181 -48.688905 -7.028000 -15.355400 48.980000 1.846718 -0.399898 -3.409393 1.876819 0.082717 -3.751558 12.046066 -13.033745 19.931073 4.191800 -6.378000 9.713700 -91.561947 4.606275 11.114578 23.453906 -26.278810 -5.805684 -0.564031 0.895919 29.759681 -7.125000 0.000000 0.000000 90.952882 -7.896184 31.200597 -21.111607 20.864172 -3.942849 -2.466447 0.106857 -10.660448 7.125000 0.000000 0.000000 
-1.905947 17.593231 29.355779 178.634441 -37.480172 -164.271243 -31.961415 -13.513157 6.671824 -1.702560 2.396572 13.792714 1.639347 8.571337 -25.118161 1.396500 7.475900 21.133100 22.584279 42.627133 -28.360430 0.828748 -9.465254 23.243280 -2.325413 -26.376281 -43.575704 -6.037600 -14.464700 45.132600 1.630931 0.130112 -3.380125 0.978533 0.279695 -3.598894 11.940868 -13.271760 19.900215 4.009700 -6.447600 9.659600 -90.999661 4.632879 11.967742 23.445119 -26.263326 -5.839233 -0.562101 0.914185 28.865457 -7.125000 0.000000 0.000000 91.858900 -7.715541 29.906871 -20.766719 20.554089 -3.813796 -2.436636 0.192763 -9.826564 7.125000 0.000000 0.000000 
-1.939674 17.596278 29.247768 179.134506 -37.176308 -164.536448 -31.504200 -12.640006 5.842369 -1.478993 2.936274 15.248946 1.417801 8.911531 -23.960755 0.925300 6.128100 17.156500 23.966123 41.525388 -28.243898 0.836259 -9.522173 23.448620 -1.458698 -27.281093 -40.295176 -5.532800 -13.959800 43.076700 1.668286 0.098645 -3.422656 0.746722 0.243966 -3.617508 11.911065 -13.107586 19.863156 4.029100 -6.397800 9.560100 -91.312042 4.766801 11.567138 23.423416 -26.267796 -5.844733 -0.548600 0.915137 28.462653 -7.125000 0.000000 0.000000 92.009207 -7.822749 29.342024 -20.495856 20.239871 -3.746763 -2.447192 0.290456 -8.965543 7.125000 0.000000 0.000000 
-1.975292 17.609727 29.131247 179.410926 -37.097548 -164.844898 -31.152243 -11.788816 5.300595 -1.220212 3.481604 16.795170 1.226131 9.094115 -22.792260 0.517300 4.610000 12.799400 25.405132 40.278077 -27.801052 0.822947 -9.577369 23.739872 -0.745302 -28.218904 -37.521109 -4.891000 -13.260000 40.349600 2.233556 -0.748841 -3.540077 1.684680 -0.123187 -3.722925 11.931796 -12.152269 20.146374 4.391900 -6.095200 9.602100 -93.237917 5.075553 8.994137 23.493662 -26.457225 -5.872513 -0.534246 0.871142 28.957370 -7.125000 0.000000 0.000000 90.349513 -8.060021 31.495343 -20.220669 19.756998 -3.678926 -2.494588 0.279330 -9.089455 7.125000 0.000000 0.000000 
-2.005342 17.622020 28.995498 179.506328 -37.266857 -165.029931 -30.772234 -11.368660 4.581092 -0.891003 4.132801 18.598572 1.235109 8.313528 -22.293415 0.541100 4.712800 13.091200 26.354338 39.818960 -27.032074 0.767865 -9.608386 24.012962 -0.950921 -27.661886 -37.886512 -5.054100 -13.444500 41.055900 2.180774 -0.638926 -3.526455 1.659849 -0.068621 -3.681179 11.923250 -12.572269 20.344799 4.283000 -6.265400 9.736400 -93.103411 5.211603 10.102917 23.437152 -26.419126 -5.913699 -0.520156 0.884622 27.845010 -7.125000 0.000000 0.000000 90.806936 -8.007216 30.353955 -19.782514 19.341985 -3.571859 -2.530472 0.242473 -8.377535 7.125000 0.000000 0.000000 
-2.033815 17.632737 28.877927 179.414490 -37.096522 -164.880470 -30.681675 -10.983869 3.335721 -0.537482 4.879181 20.597672 1.144145 8.079130 -21.489243 0.506400 4.561700 12.662500 26.945340 39.097585 -26.758552 0.713715 -9.658940 24.232306 -1.296869 -26.242440 -37.900147 -5.494300 -13.919800 42.917000 2.184592 -0.659817 -3.600037 1.754542 -0.070969 -3.723861 11.864293 -12.586730 20.586335 4.231900 -6.273200 9.831300 -93.313418 5.466097 10.823594 23.406760 -26.436284 -5.974559 -0.483184 0.892767 26.144506 -7.125000 0.000000 0.000000 91.039220 -7.840671 29.422917 -19.218092 18.758952 -3.430397 -2.565140 0.240026 -7.305162 7.125000 0.000000 0.000000 
-2.043166 17.640827 28.778216 179.231141 -37.032685 -164.566998 -30.630641 -10.760072 1.824717 -0.167262 5.672895 22.699190 0.974074 8.293704 -20.371933 0.263300 3.300800 9.117400 27.293634 38.420857 -26.827536 0.685938 -9.722711 24.425767 -1.154804 -26.008638 -36.711385 -5.438000 -13.860700 42.682400 2.218390 -0.808922 -3.759785 1.960825 -0.124300 -4.007370 11.826720 -12.508354 20.805174 4.220600 -6.250000 9.905000 -93.614359 5.579736 9.449506 23.427660 -26.456204 -5.935563 -0.491914 0.894781 28.071569 -7.125000 0.000000 0.000000 91.073403 -7.490925 29.071996 -18.527866 18.017357 -3.262186 -2.600332 0.266727 -6.742981 7.125000 0.000000 0.000000 
-2.069749 17.654381 28.668735 179.126461 -36.816574 -164.276792 -30.559394 -10.554166 0.342693 0.233866 6.498413 24.924661 0.932333 8.334837 -20.093207 0.162700 2.598800 7.163800 27.484376 38.368780 -26.774464 0.664165 -9.761513 24.579061 -0.901850 -26.334569 -35.547171 -5.172800 -13.575800 41.564100 2.206236 -0.803565 -3.864498 2.049148 -0.113688 -4.079474 11.819694 -12.491235 20.916378 4.216300 -6.254000 9.922100 -93.812981 5.804841 10.335578 23.336896 -26.387474 -5.953734 -0.454552 0.901038 26.254941 -7.125000 0.000000 0.000000 91.076456 -7.453093 29.027907 -18.127723 17.585055 -3.182350 -2.634301 0.280321 -6.562037 7.125000 0.000000 0.000000 
-2.096331 17.676025 28.553790 178.991085 -36.659440 -164.370647 -30.484132 -9.886406 -0.876136 0.720332 7.316457 27.311420 0.814946 8.112653 -18.931148 0.246700 3.196100 8.825300 27.954926 38.375842 -26.025107 0.614924 -9.745503 24.744465 -0.946941 -26.052262 -35.399723 -5.271100 -13.682700 41.980900 2.188035 -0.806465 -3.869991 2.162813 -0.102023 -4.134203 11.749461 -12.520714 21.060140 4.156300 -6.265400 9.970300 -93.887665 5.868233 9.942998 23.284585 -26.294174 -5.876432 -0.486840 0.892539 27.234799 -7.125000 0.000000 0.000000 91.106206 -7.668074 28.874585 -17.982109 17.424185 -3.197362 -2.681921 0.320377 -6.409485 7.125000 0.000000 0.000000 
